<mxfile host="app.diagrams.net" modified="2023-05-27T05:50:04.521Z" agent="Mozilla/5.0 (Windows NT 10.0; Win64; x64) AppleWebKit/537.36 (KHTML, like Gecko) Chrome/113.0.0.0 Safari/537.36 Edg/113.0.1774.50" etag="nZWl5ocTW3Oq_ESQquqo" version="21.3.4" type="device">
  <diagram name="PÃ¡gina-1" id="cnfOo9wDIWgG4Gu9NPAx">
    <mxGraphModel dx="1331" dy="788" grid="1" gridSize="10" guides="1" tooltips="1" connect="1" arrows="1" fold="1" page="1" pageScale="1" pageWidth="827" pageHeight="1169" math="0" shadow="0">
      <root>
        <mxCell id="0" />
        <mxCell id="1" parent="0" />
        <mxCell id="gkR3_Ned25KO9HJxwuSS-1" value="Movies&lt;br&gt;&lt;br&gt;title-string&lt;br&gt;year-number&lt;br&gt;rated-string&lt;br&gt;released-date&lt;br&gt;runtime-string&lt;br&gt;poster-string&lt;br&gt;imdbRating-number&lt;br&gt;country-array&lt;br&gt;type - bool&lt;br&gt;(if movie -&amp;gt; true else false)" style="ellipse;whiteSpace=wrap;html=1;fillColor=#1ba1e2;fontColor=#ffffff;strokeColor=#006EAF;" vertex="1" parent="1">
          <mxGeometry x="210" y="240" width="260" height="250" as="geometry" />
        </mxCell>
        <mxCell id="gkR3_Ned25KO9HJxwuSS-2" value="Person&lt;br&gt;&lt;br&gt;name" style="ellipse;whiteSpace=wrap;html=1;fillColor=#d80073;fontColor=#ffffff;strokeColor=#A50040;" vertex="1" parent="1">
          <mxGeometry x="540" y="40" width="150" height="160" as="geometry" />
        </mxCell>
        <mxCell id="gkR3_Ned25KO9HJxwuSS-3" value="" style="endArrow=classic;html=1;rounded=0;entryX=1;entryY=0;entryDx=0;entryDy=0;exitX=0;exitY=0.5;exitDx=0;exitDy=0;" edge="1" parent="1" source="gkR3_Ned25KO9HJxwuSS-2" target="gkR3_Ned25KO9HJxwuSS-1">
          <mxGeometry width="50" height="50" relative="1" as="geometry">
            <mxPoint x="390" y="430" as="sourcePoint" />
            <mxPoint x="500" y="300" as="targetPoint" />
          </mxGeometry>
        </mxCell>
        <mxCell id="gkR3_Ned25KO9HJxwuSS-4" value="ACTED&lt;br&gt;year" style="text;html=1;strokeColor=none;fillColor=none;align=center;verticalAlign=middle;whiteSpace=wrap;rounded=0;" vertex="1" parent="1">
          <mxGeometry x="414" y="170" width="60" height="30" as="geometry" />
        </mxCell>
        <mxCell id="gkR3_Ned25KO9HJxwuSS-5" value="DIRECTED&lt;br&gt;year" style="text;html=1;strokeColor=none;fillColor=none;align=center;verticalAlign=middle;whiteSpace=wrap;rounded=0;" vertex="1" parent="1">
          <mxGeometry x="490" y="200" width="60" height="30" as="geometry" />
        </mxCell>
        <mxCell id="gkR3_Ned25KO9HJxwuSS-6" value="Genre&lt;br&gt;&lt;br&gt;genreName" style="ellipse;whiteSpace=wrap;html=1;fillColor=#008a00;fontColor=#ffffff;strokeColor=#005700;" vertex="1" parent="1">
          <mxGeometry x="520" y="570" width="164" height="165" as="geometry" />
        </mxCell>
        <mxCell id="gkR3_Ned25KO9HJxwuSS-7" value="" style="endArrow=classic;html=1;rounded=0;exitX=0.852;exitY=0.9;exitDx=0;exitDy=0;exitPerimeter=0;" edge="1" parent="1" source="gkR3_Ned25KO9HJxwuSS-1" target="gkR3_Ned25KO9HJxwuSS-6">
          <mxGeometry width="50" height="50" relative="1" as="geometry">
            <mxPoint x="390" y="430" as="sourcePoint" />
            <mxPoint x="440" y="380" as="targetPoint" />
          </mxGeometry>
        </mxCell>
        <mxCell id="gkR3_Ned25KO9HJxwuSS-16" style="edgeStyle=orthogonalEdgeStyle;rounded=0;orthogonalLoop=1;jettySize=auto;html=1;exitX=1;exitY=0.75;exitDx=0;exitDy=0;" edge="1" parent="1" source="gkR3_Ned25KO9HJxwuSS-8">
          <mxGeometry relative="1" as="geometry">
            <mxPoint x="510" y="510" as="targetPoint" />
          </mxGeometry>
        </mxCell>
        <mxCell id="gkR3_Ned25KO9HJxwuSS-8" value="IS_GENRE" style="text;html=1;strokeColor=none;fillColor=none;align=center;verticalAlign=middle;whiteSpace=wrap;rounded=0;rotation=35;" vertex="1" parent="1">
          <mxGeometry x="470" y="470" width="60" height="30" as="geometry" />
        </mxCell>
        <mxCell id="gkR3_Ned25KO9HJxwuSS-12" value="Language" style="ellipse;whiteSpace=wrap;html=1;fillColor=#76608a;fontColor=#ffffff;strokeColor=#432D57;" vertex="1" parent="1">
          <mxGeometry x="100" y="90" width="120" height="80" as="geometry" />
        </mxCell>
        <mxCell id="gkR3_Ned25KO9HJxwuSS-13" value="" style="endArrow=classic;html=1;rounded=0;entryX=1;entryY=1;entryDx=0;entryDy=0;exitX=0;exitY=0;exitDx=0;exitDy=0;" edge="1" parent="1" source="gkR3_Ned25KO9HJxwuSS-1" target="gkR3_Ned25KO9HJxwuSS-12">
          <mxGeometry width="50" height="50" relative="1" as="geometry">
            <mxPoint x="390" y="430" as="sourcePoint" />
            <mxPoint x="440" y="380" as="targetPoint" />
          </mxGeometry>
        </mxCell>
        <mxCell id="gkR3_Ned25KO9HJxwuSS-14" value="HAS_LANG" style="text;html=1;strokeColor=none;fillColor=none;align=center;verticalAlign=middle;whiteSpace=wrap;rounded=0;" vertex="1" parent="1">
          <mxGeometry x="150" y="210" width="60" height="30" as="geometry" />
        </mxCell>
      </root>
    </mxGraphModel>
  </diagram>
</mxfile>
